<svg width="362" height="317" viewBox="0 0 362 317" fill="none" xmlns="http://www.w3.org/2000/svg">
<circle cx="83.7419" cy="83.7419" r="83.2419" stroke="#6F9AEA" stroke-linecap="round"/>
<path d="M0.858887 78.5885C5.72593 76.155 17.6073 70.6867 26.1962 68.2818C34.7851 65.8769 118.241 53.5375 158.895 47.6685" stroke="#6F9AEA" stroke-linecap="round"/>
<circle cx="277.851" cy="83.7419" r="83.2419" stroke="#6F9AEA" stroke-linecap="round"/>
<path d="M207.852 78.6074V69.9811C207.422 68.0208 205.275 65.2758 201.839 65.2759C198.387 65.2759 195.827 68.0206 195.827 70.3732V78.6074C195.827 80.96 198.833 83.3126 201.839 83.3126C205.275 83.3126 207.852 80.5679 207.852 78.6074Z" stroke="#6F9AEA" stroke-linecap="round"/>
<path d="M165.766 78.6074V69.9811C165.336 68.0208 163.189 65.2758 159.753 65.2759C156.301 65.2759 153.741 68.0206 153.741 70.3732V78.6074C153.741 80.96 156.747 83.3126 159.753 83.3126C163.189 83.3126 165.766 80.5679 165.766 78.6074Z" stroke="#6F9AEA" stroke-linecap="round"/>
<line x1="16.9865" y1="34.9813" x2="163.815" y2="105.835" stroke="#6F9AEA" stroke-linecap="round"/>
<path d="M206.706 125.195L292.452 165.766" stroke="#6F9AEA" stroke-linecap="round"/>
<line x1="166.437" y1="96.8311" x2="199.898" y2="113.562" stroke="#6F9AEA" stroke-linecap="round"/>
<path d="M6.0127 20.1836L21.4727 28.3431" stroke="#6F9AEA" stroke-linecap="round"/>
<path d="M207.851 39.0799L331.904 21.1087M161.901 54.54L201.839 48.5275" stroke="#6F9AEA" stroke-linecap="round"/>
<path d="M340.139 27.8271L359.53 24.908" stroke="#6F9AEA" stroke-linecap="round"/>
<path d="M155.888 42.0854C155.459 39.9381 154.6 30.9198 156.747 24.9076C159.783 16.4049 167.483 7.30029 181.655 7.30029C195.827 7.30029 202.698 15.4598 205.274 22.7603C207.336 28.6008 206.992 35.6437 206.992 39.0793" stroke="#6F9AEA" stroke-linecap="round"/>
<path d="M9.4475 121.533C6.44125 124.969 1.9753 136.993 6.44138 159.324C10.7357 180.797 31.349 213.435 45.0913 231.471" stroke="#6F9AEA" stroke-linecap="round"/>
<path d="M298.465 164.907C306.91 172.923 324.149 194.27 325.949 215.152C328.096 240.06 321.655 255.52 307.912 270.98C299.604 280.327 271.553 305.192 258.097 316.072" stroke="#6F9AEA" stroke-linecap="round"/>
</svg>
