<svg width="416" height="233" viewBox="0 0 416 233" fill="none" xmlns="http://www.w3.org/2000/svg">
<path d="M79.5 95.89C94.6171 82.5006 131.589 56.24 151.63 56.5855C176.682 57.0174 175.818 63.4962 185.32 63.4962C194.822 63.4962 196.171 56.031 209.075 54.8578C223.329 53.5621 231.535 57.4494 246.652 56.5855C264.243 55.5804 279.321 49.9888 290.708 39.7407C295.027 35.8534 295.459 34.9896 296.755 33.6938" stroke="#6F9AEA" stroke-linecap="round"/>
<path d="M79.9316 96.3223C87.2743 93.4428 116.126 84.9195 134.785 84.2284C158.109 83.3646 176.249 89.4113 207.348 85.9561C228.08 83.6526 241.037 82.9327 269.112 68.6794C285.761 60.2269 294.307 43.3402 297.618 38.0132" stroke="#6F9AEA" stroke-linecap="round"/>
<path d="M79.5 95.8907C108.007 115.327 168.344 124.793 194.39 123.102C227.648 120.942 250.972 108.416 270.84 88.5481C288.714 70.6743 292.868 57.0181 298.915 41.0371" stroke="#6F9AEA" stroke-linecap="round"/>
<path d="M341.242 163.27L298.05 38.4451C294.163 25.0558 296.322 7.77919 308.847 3.02769C323.457 -2.51457 335.195 3.89166 339.946 15.1217C339.946 15.1217 341.674 19.009 343.401 23.7601C345.129 28.5112 346.425 31.9665 347.721 35.4219C349.016 38.8772 400.614 182.616 400.614 182.616" stroke="#6F9AEA" stroke-linecap="round"/>
<path d="M386.4 143.401C384.622 138.161 384.178 124.15 393.937 119.646C405.167 114.463 412.509 120.51 414.669 123.056" stroke="#6F9AEA" stroke-linecap="round"/>
<path d="M235.423 231.945C228.513 223.738 223.14 200.854 239.742 192.208C255.518 183.993 266.953 192.208 269.544 195.231L280.099 209.478" stroke="#6F9AEA" stroke-linecap="round"/>
<path d="M269.113 194.8C266.666 190.337 266.02 176.911 277.078 169.31C288.135 161.708 297.907 165.429 301.939 167.589L317.488 188.321" stroke="#6F9AEA" stroke-linecap="round"/>
<path d="M302.37 168.021C300.93 162.262 300.45 147.288 311.872 141.242C321.663 136.058 330.876 137.355 332.604 139.083" stroke="#6F9AEA" stroke-linecap="round"/>
<path d="M1 43C5.92086 91.5354 28.4747 147.474 76.8634 182.025C133.93 222.772 205.216 217.81 229 217.81" stroke="#6F9AEA" stroke-linecap="round"/>
</svg>
