<svg width="277" height="349" viewBox="0 0 277 349" fill="none" xmlns="http://www.w3.org/2000/svg">
<path d="M96.5 122.5C97.5 122 100 122 102 124C104.5 126.5 109 133 111.5 138.5L113 142M101 137.5C102.5 139 103 139.5 104 141C105.255 142.883 105.5 143.5 106 144.5" stroke="#6F9AEA" stroke-linecap="round"/>
<path d="M95.5 134C96.5 136 96 138 95 139.5C94.0586 140.912 92.8333 141.333 92.5 141.5" stroke="#6F9AEA" stroke-linecap="round"/>
<path d="M29 273.5C26.6667 281 21.1 300.3 17.5 317.5C13.9 334.7 13 345 13 348" stroke="#6F9AEA" stroke-linecap="round"/>
<path d="M39.5 155C24 173.5 -5.09999 217.6 2.50001 246C10.1 274.4 33.6667 275.833 45.5 272.5C53.5 270.246 63.7 267.1 72.5 253.5C81.3 239.9 93.5 212.167 98.5 200C100.833 199.833 107.3 198.6 114.5 195C117 193.667 122.4 190.8 124 190C125.6 189.2 128.708 191.604 130.5 192.5C135.5 195 147 197.5 151 191C155.455 183.761 150.5 177.5 149 176C147.777 174.777 144.5 173 142 172.5C140.522 172.204 136 172 134 172.5" stroke="#6F9AEA" stroke-linecap="round"/>
<path d="M28.5 216C33.6667 208.833 47.3 191.4 60.5 179C77 163.5 93.5 149.5 108 144C122.5 138.5 130 142.5 131.5 143.5C132.7 144.3 134.333 146.167 135 147M124.5 150.5C126.167 149.333 130.9 147.1 136.5 147.5C143.5 148 147 151.5 148 154C148.8 156 148.667 159.833 148.5 161.5" stroke="#6F9AEA" stroke-linecap="round"/>
<path d="M131 160C134 158.833 141.7 157.3 146.5 160.5C151.3 163.7 151.6 166 152 168C152.333 169.667 152 173 149.5 175.5" stroke="#6F9AEA" stroke-linecap="round"/>
<path d="M67.5 103.5C66.5 101.5 64.5 95.4001 64.5 87.0001C64.5 78.6001 65.5 70.8334 66 68.0001C60.8333 54.1668 53.3 25.8001 64.5 23.0001C78.5 19.5001 94 36.5001 97.5 38.0001C101 39.5001 102 35.0002 118.5 32.0002C135 29.0002 150.5 30.0002 153.5 29.0002C156.5 28.0002 171 -3.72529e-08 184.5 1.50005C195.712 2.74582 198.5 30.5003 198.5 42.5003C198.5 54.0437 208.357 59 211.5 75.5003C215.5 96.5003 214.5 117.5 219.5 133.5C224.5 149.5 242.5 175 254.5 221C266.5 267 273.5 302 276 345V347.5M84 233C90.5 247.333 108.7 276.9 129.5 280.5C142.682 282.782 154.285 280.565 162.5 277.616M196.5 248.5C194.305 251.636 191.157 255.387 187.834 259M162 213C163.333 211.833 165.9 208.6 167.5 203C169.5 196 172.5 187.5 177.5 182C181 178.15 184.5 174.667 186 173M174 272C175.302 271.107 177.04 269.661 179 267.868L174 272Z" stroke="#6F9AEA" stroke-linecap="round"/>
<path d="M50.4999 141.5C48.6666 141.5 45 143.5 42.9999 146C39.9235 149.845 37.4999 157.5 40.9999 168C43.7999 176.4 49.8332 184.167 52.4999 187" stroke="#6F9AEA" stroke-linecap="round"/>
<path d="M67.4999 132.5C67.3333 131.833 66.2999 130.4 63.4999 130C59.9999 129.5 57.2614 131.239 54.4999 134C52.9998 135.5 49.5006 141.5 49.0003 149.5C48.7506 153.492 49.5 156 50 157.5M61 153.5C60 150 61 144 63 139.5C65.9287 132.91 69.6 130.4 74 130C78.4 129.6 82.5 133 82.5 137M74 151.5C74 145.5 76 141 80 138.5C84.3653 135.772 88.1667 138 89.5 139C90.8333 140 92.6 141.8 93 145C93.4 148.2 93.1667 150.5 93 151.5" stroke="#6F9AEA" stroke-linecap="round"/>
<path d="M64 130C61.1666 124.167 59.4996 111.5 66.9997 104.5C74.7198 97.2948 82.5 99.5 86 102C89.5 104.5 95.9994 111.5 94.9997 119M103 199.5C103.333 202.834 107.2 211.5 120 219.5C136 229.5 134.5 225 146 234.5C155.2 242.1 159.5 257.667 160.5 264.5C161.333 264.834 163.7 265.3 166.5 264.5C169.3 263.7 171.333 262.5 172 262C171.667 256.334 169.2 242.6 162 233C153 221 147 213 133 204M163 265.5C163.167 266.834 163.2 270.1 162 272.5C160.8 274.9 162.167 277.167 163 278C166.5 280.5 173 281.5 178.5 282C182.483 282.362 188 283 189 280.5C189.8 278.5 188 277.334 187 277C181.667 275.334 172 272 171 268.5C170.3 266.049 170.5 263.909 170.5 262.909" stroke="#6F9AEA" stroke-linecap="round"/>
<path d="M79 108C79.5 108.667 80.3 110.5 79.5 112.5C78.5 115 74 117.5 73 123C72.2 127.4 72.3333 129.5 72.5 130" stroke="#6F9AEA" stroke-linecap="round"/>
<path d="M90 139C90.6667 139.167 92.5 138.8 94.5 136C97 132.5 97.5 124 95 119.5C92.5 115 91.5 113.5 88.5 111" stroke="#6F9AEA" stroke-linecap="round"/>
<path d="M79 108C79.1667 108.5 80.2 109.7 83 110.5C85.8 111.3 87.8333 111.167 88.5 111" stroke="#6F9AEA" stroke-linecap="round"/>
<path d="M141.5 195.5C147.333 199 157.9 207.5 163.5 215.5C169.1 223.5 178.833 243.5 183 252.5C183 253.333 182.3 255.2 179.5 256C176.7 256.8 175 256.5 173.5 256.5C172.5 255 170.4 250.5 170 250.5M175.5 257C175.833 257.667 176.4 259.6 176 262C175.5 265 176 266.5 177.5 267.5C179 268.5 187.5 268.5 192.5 268C197.5 267.5 201.5 267 203 265.5C204.5 264 204.5 262 203 261C201.5 260 189.245 260.147 186.5 258.5C184 257 183.5 254.167 183 253.5" stroke="#6F9AEA" stroke-linecap="round"/>
</svg>
