<svg width="598" height="399" viewBox="0 0 598 399" fill="none" xmlns="http://www.w3.org/2000/svg">
<g clip-path="url(#clip0_182_856)">
<path d="M261.012 191.432C261.926 190.971 264.21 190.971 266.037 192.812C268.321 195.113 272.432 201.097 274.716 206.159L276.086 209.381M265.123 205.239C266.494 206.619 266.95 207.08 267.864 208.46C269.011 210.193 269.234 210.762 269.691 211.682" stroke="#6F9AEA" stroke-linecap="round"/>
<path d="M260.099 202.018C261.012 203.859 260.555 205.7 259.642 207.08C258.782 208.38 257.662 208.768 257.358 208.921" stroke="#6F9AEA" stroke-linecap="round"/>
<path d="M199.345 330.424C197.214 337.327 192.128 355.093 188.839 370.925C185.55 386.757 184.728 396.238 184.728 399" stroke="#6F9AEA" stroke-linecap="round"/>
<path d="M208.938 221.347C194.778 238.376 168.193 278.969 175.136 305.11C182.079 331.252 203.609 332.571 214.42 329.503C221.728 327.429 231.047 324.533 239.086 312.014C247.126 299.495 258.272 273.967 262.839 262.768C264.971 262.615 270.879 261.48 277.457 258.166C279.741 256.939 284.674 254.3 286.136 253.564C287.597 252.827 290.437 255.04 292.074 255.865C296.642 258.166 307.148 260.467 310.802 254.484C314.872 247.821 310.346 242.057 308.975 240.677C307.858 239.551 304.864 237.915 302.58 237.455C301.23 237.183 297.099 236.995 295.272 237.455" stroke="#6F9AEA" stroke-linecap="round"/>
<path d="M198.889 277.497C203.609 270.9 216.064 254.853 228.123 243.439C243.197 229.171 258.271 216.285 271.518 211.222C284.765 206.159 291.617 209.841 292.987 210.762C294.084 211.498 295.576 213.217 296.185 213.984M286.592 217.205C288.115 216.131 292.439 214.076 297.555 214.444C303.95 214.904 307.148 218.126 308.062 220.427C308.792 222.268 308.671 225.797 308.518 227.331" stroke="#6F9AEA" stroke-linecap="round"/>
<path d="M292.531 225.95C295.272 224.876 302.306 223.465 306.691 226.41C311.076 229.356 311.351 231.473 311.716 233.314C312.02 234.848 311.716 237.916 309.432 240.217" stroke="#6F9AEA" stroke-linecap="round"/>
<path d="M234.519 173.943C233.605 172.102 231.778 166.487 231.778 158.755C231.778 151.023 232.692 143.874 233.148 141.266C228.428 128.532 221.546 102.421 231.778 99.8439C244.568 96.6222 258.729 112.27 261.926 113.651C265.124 115.032 266.037 110.89 281.111 108.128C296.186 105.367 310.346 106.287 313.087 105.367C315.828 104.446 329.074 78.6728 341.408 80.0535C351.65 81.2002 354.198 106.748 354.198 117.793C354.198 128.419 363.203 132.981 366.074 148.169C369.729 167.499 368.815 186.83 373.383 201.557C377.951 216.285 394.395 239.757 405.358 282.099C416.321 324.441 422.716 356.658 425 396.239V398.54M249.593 293.145C255.531 306.338 272.158 333.554 291.161 336.868C303.204 338.968 313.804 336.927 321.309 334.213M352.371 307.412C350.365 310.299 347.489 313.752 344.453 317.077M320.852 274.735C322.07 273.661 324.415 270.685 325.877 265.53C327.704 259.087 330.445 251.263 335.013 246.2C338.21 242.656 341.408 239.45 342.778 237.916M331.815 329.044C333.005 328.221 334.593 326.89 336.383 325.24L331.815 329.044Z" stroke="#6F9AEA" stroke-linecap="round"/>
<path d="M218.988 208.921C217.313 208.921 213.963 210.762 212.136 213.063C209.326 216.603 207.111 223.649 210.309 233.314C212.867 241.046 218.379 248.195 220.815 250.803" stroke="#6F9AEA" stroke-linecap="round"/>
<path d="M234.518 200.637C234.366 200.023 233.422 198.704 230.864 198.336C227.667 197.875 225.165 199.476 222.642 202.017C221.271 203.398 218.075 208.921 217.618 216.285C217.389 219.96 218.074 222.268 218.531 223.649M228.58 219.967C227.667 216.745 228.58 211.222 230.407 207.08C233.083 201.014 236.437 198.704 240.457 198.336C244.477 197.967 248.222 201.097 248.222 204.779M240.457 218.126C240.457 212.603 242.284 208.461 245.938 206.16C249.926 203.648 253.399 205.699 254.617 206.62C255.835 207.54 257.449 209.197 257.815 212.143C258.18 215.088 257.967 217.205 257.815 218.126" stroke="#6F9AEA" stroke-linecap="round"/>
<path d="M231.321 198.336C228.732 192.966 227.209 181.307 234.061 174.864C241.114 168.231 248.222 170.261 251.419 172.563C254.617 174.864 260.555 181.307 259.641 188.211M266.95 262.309C267.255 265.378 270.787 273.355 282.481 280.719C297.098 289.924 295.728 285.782 306.234 294.526C314.639 301.522 318.567 315.851 319.481 322.141C320.242 322.448 322.405 322.877 324.963 322.141C327.521 321.404 329.378 320.3 329.987 319.84C329.683 314.623 327.429 301.982 320.851 293.146C312.629 282.1 307.148 274.736 294.358 266.452M321.765 323.061C321.917 324.289 321.948 327.295 320.851 329.505C319.755 331.714 321.004 333.8 321.765 334.567C324.963 336.868 330.901 337.789 335.926 338.249C339.565 338.582 344.605 339.17 345.518 336.868C346.249 335.027 344.605 333.954 343.691 333.647C338.819 332.113 329.987 329.044 329.074 325.823C328.434 323.566 328.617 321.597 328.617 320.676" stroke="#6F9AEA" stroke-linecap="round"/>
<path d="M245.024 178.085C245.481 178.699 246.212 180.386 245.481 182.227C244.568 184.528 240.457 186.83 239.543 191.892C238.812 195.942 238.934 197.875 239.086 198.336" stroke="#6F9AEA" stroke-linecap="round"/>
<path d="M255.074 206.619C255.683 206.773 257.358 206.435 259.185 203.858C261.469 200.636 261.926 192.812 259.642 188.67C257.358 184.528 256.444 183.147 253.704 180.846" stroke="#6F9AEA" stroke-linecap="round"/>
<path d="M245.024 178.085C245.177 178.545 246.121 179.65 248.679 180.386C251.237 181.123 253.094 181 253.703 180.846" stroke="#6F9AEA" stroke-linecap="round"/>
<path d="M302.124 258.627C307.453 261.849 317.106 269.673 322.222 277.037C327.338 284.4 336.231 302.81 340.037 311.094C340.037 311.861 339.398 313.58 336.84 314.316C334.282 315.052 332.728 314.776 331.358 314.776C330.445 313.396 328.526 309.253 328.161 309.253M333.185 315.237C333.49 315.85 334.007 317.63 333.642 319.839C333.185 322.6 333.642 323.981 335.012 324.902C336.383 325.822 344.148 325.822 348.716 325.362C353.284 324.902 356.938 324.441 358.309 323.061C359.679 321.68 359.679 319.839 358.309 318.918C356.938 317.998 345.743 318.133 343.235 316.617C340.951 315.237 340.494 312.628 340.037 312.015" stroke="#6F9AEA" stroke-linecap="round"/>
</g>
<defs>
<clipPath id="clip0_182_856">
<rect width="598" height="399" fill="white"/>
</clipPath>
</defs>
</svg>
