<svg width="41" height="40" viewBox="0 0 41 40" fill="none" xmlns="http://www.w3.org/2000/svg">
<rect x="1.5" y="0.5" width="38.7164" height="38.7164" rx="6.5" stroke="#6F9AEA"/>
<path d="M1.41357 7.86021C7.20555 6.20539 19.4519 4.96424 27.8912 12.411C34.9243 18.6169 37.4066 25.65 36.9929 38.4751M1.41357 20.6853C1.41357 20.2716 3.89585 16.5482 7.61926 16.1345C11.3427 15.7208 17.1347 17.3756 20.4444 20.6853C23.7541 23.995 27.0638 28.1322 27.0638 32.2693C27.0638 35.579 24.8573 38.3371 23.7541 39.3024" stroke="#6F9AEA" stroke-linecap="round"/>
<path d="M10.7093 19.3313C12.5091 20.6172 12.8775 23.3219 11.3938 25.3987C9.91009 27.4754 7.23197 28.0038 5.43213 26.718C3.63229 25.4322 3.26399 22.7275 4.74763 20.6506C6.23134 18.5738 8.90942 18.0455 10.7093 19.3313Z" stroke="#6F9AEA"/>
<path d="M22.7088 29.5491C24.5086 30.8349 24.877 33.5397 23.3933 35.6165C21.9096 37.6932 19.2315 38.2216 17.4316 36.9358C15.6318 35.65 15.2635 32.9452 16.7471 30.8684C18.2309 28.7916 20.9089 28.2632 22.7088 29.5491Z" stroke="#6F9AEA"/>
<path d="M12.0493 30.3223L12.8767 31.1497" stroke="#6F9AEA" stroke-linecap="round"/>
<path d="M1.41357 30.6147C1.82729 31.4422 3.15117 33.5935 5.13699 35.5793C7.12281 37.5651 9.27411 38.889 10.1015 39.3027" stroke="#6F9AEA" stroke-linecap="round"/>
</svg>
