<svg width="344" height="324" viewBox="0 0 344 324" fill="none" xmlns="http://www.w3.org/2000/svg">
<circle cx="67" cy="266.086" r="56.5" stroke="#6F9AEA" stroke-linecap="round"/>
<line x1="0.5" y1="322.586" x2="284.5" y2="322.586" stroke="#6F9AEA" stroke-linecap="round"/>
<path d="M94.5 216.586C99.1667 218.086 109.2 220.286 126 223.086C142.8 225.886 150.333 231.919 152 234.586C157.966 239.773 141 284.586 144.5 286.586C148 288.586 195 280.086 201 277.086C207 274.086 209.177 228.586 206 215.086C204 206.586 173.5 188.786 162 191.086C142 195.086 88.5 207.879 71 209.086C56.4997 210.086 32.3742 204.806 26.0003 180.586C11.0001 123.586 34 24.0859 71.5003 18.0859C77.5002 16.7525 91.1 17.0859 97.5 29.0859C103.9 41.0859 111.5 91.4192 114.5 115.086L68.5 134.086" stroke="#6F9AEA" stroke-linecap="round"/>
<path d="M114.5 115.086C128.667 115.753 158.2 116.686 163 115.086C169 113.086 172.573 106.852 177 104.086C181 101.586 185 102.086 186.5 105.586C188 109.086 187.171 119.844 181 128.586C175 137.086 166 140.586 161.5 143.086" stroke="#6F9AEA" stroke-linecap="round"/>
<path d="M68.5001 55.0859C66.6668 83.0859 66.5 139.086 71.0001 149.086C75.2045 158.429 83.3336 158.753 85.5003 158.586" stroke="#6F9AEA" stroke-linecap="round"/>
<path d="M24 169.586C84.5 162.586 141 141.586 166 143.586C183.79 145.009 208.5 172.086 222.5 185.586C237.009 199.577 257 216.086 260 222.086C262.47 227.025 232 268.586 226.5 270.086C221 271.586 221.5 267.086 217 262.086C213.4 258.086 210 255.086 207 253.586M116.5 114.586C118.167 103.086 122.3 76.6859 125.5 63.0858C129.5 46.0858 135 19.0858 137.5 17.5858C138.904 16.7434 148.826 18.1091 160 19.5568M187.5 111.586C190.5 105.586 209 25.0858 208.5 23.0858C208 21.0858 200.5 22.5858 185 22.0858C178.206 21.8667 168.721 20.6868 160 19.5568M160 19.5568C160.833 13.7332 162.8 1.88581 164 1.08581C165.5 0.0858062 184.5 8.08581 190.5 11.5858C195.3 14.3858 201.181 17.3588 207.681 22.3587" stroke="#6F9AEA" stroke-linecap="round"/>
<path d="M206.5 33.586C202 31.2527 190.7 28.186 181.5 34.586C170 42.586 171 51.0859 165 55.0859C159 59.0859 152.362 55.8303 148.5 57.5859C143 60.0859 140.757 65.6363 145 70.5859C148 74.0859 154 71.0859 155.5 74.5859C157 78.0859 149 92.0859 151 101.586C151.842 105.586 153.78 109.074 157 111.086C161 113.586 164.833 113.586 166 113.586" stroke="#6F9AEA" stroke-linecap="round"/>
<path d="M158.5 286.086C159.167 286.919 159.6 293.286 158 298.086C156 304.086 154.5 306.086 154.5 313.586C154.5 319.586 157.5 322.086 159 322.586C185.5 322.586 224.5 322.586 238 322.586C241.905 322.586 250 321.086 250 313.586C250 309.586 247.5 306.086 242.5 303.586C235.429 300.05 204 291.586 202 286.586C200.063 281.744 201.333 277.919 201.5 277.086M234.5 263.086C244.5 268.086 249.4 274.186 253 278.586C255.864 282.086 258.476 288.767 265.5 289.086C276.5 289.586 275.5 281.586 285.5 270.086C300.303 253.062 320.225 231.923 322.5 224.086C326.029 211.929 314 209.651 307 212.086C295.5 216.086 288 233.086 278 233.586C270 233.986 264 227.253 260 224.086M290.5 161.086C288.5 163.086 286.9 191.186 292.5 199.586C298.1 207.986 308.667 211.255 313.5 211.255C317 211.755 323.992 209.348 327.5 204.086C330.5 199.586 331 195.6 331 186.586C331 177.586 330 165.086 328 163.086C326.4 161.486 295.5 159.586 290.5 161.086Z" stroke="#6F9AEA" stroke-linecap="round"/>
<path d="M330.5 171.586C331.333 170.419 334.411 170.346 337 171.086C340.5 172.086 344.29 176.137 343 182.586C342.5 185.086 341 186.586 338 188.586C335 190.586 332.5 191.586 331 195.086" stroke="#6F9AEA" stroke-linecap="round"/>
<path d="M300.5 160.586C300.667 159.919 301.333 156.586 301 154.586C300.667 152.586 299.5 148.586 295.5 146.086C290.666 143.064 271 144.586 267 143.586C264.833 143.586 260.2 142.086 259 136.086C257.5 128.586 265 126.086 262.5 120.586C260 115.086 240.5 115.586 233 100.586C227 88.5859 233.901 81.5859 237.5 78.5859C239.9 76.5859 245.7 73.5859 252.5 73.5859C261 73.5859 266.5 74.0859 271.5 80.5859C276.5 87.0859 273 92.0859 277 99.0859C281 106.086 291.261 103.719 297.5 108.086C302.5 111.586 306.5 111.086 309.5 127.086C311.563 138.086 308 144.586 313 155.086C314.739 158.737 319 161.086 321 161.586" stroke="#6F9AEA" stroke-linecap="round"/>
</svg>
