<svg width="598" height="399" viewBox="0 0 598 399" fill="none" xmlns="http://www.w3.org/2000/svg">
<circle cx="224.431" cy="300.227" r="48.3593" stroke="#6F9AEA" stroke-linecap="round"/>
<line x1="167.5" y1="348.586" x2="410.797" y2="348.586" stroke="#6F9AEA" stroke-linecap="round"/>
<path d="M248.003 257.796C252.004 259.082 260.604 260.967 275.005 263.367C289.405 265.768 295.863 270.939 297.291 273.225C302.405 277.672 287.863 316.084 290.863 317.798C293.863 319.513 334.15 312.227 339.293 309.655C344.437 307.084 346.303 268.082 343.579 256.51C341.865 249.224 315.721 233.966 305.863 235.938C288.72 239.366 242.86 250.332 227.86 251.367C215.43 252.224 194.75 247.698 189.287 226.937C176.429 178.078 196.144 92.7884 228.289 87.6453C233.432 86.5024 245.089 86.7881 250.575 97.0743C256.061 107.36 262.575 150.505 265.147 170.792L225.717 187.078" stroke="#6F9AEA" stroke-linecap="round"/>
<path d="M265.147 170.793C277.291 171.364 302.606 172.164 306.721 170.793C311.864 169.078 314.927 163.735 318.721 161.364C322.15 159.221 325.579 159.649 326.864 162.649C328.15 165.65 327.439 174.871 322.15 182.365C317.007 189.651 309.292 192.651 305.435 194.794" stroke="#6F9AEA" stroke-linecap="round"/>
<path d="M225.717 119.361C224.146 143.362 224.003 191.365 227.86 199.936C231.464 207.945 238.432 208.222 240.289 208.08" stroke="#6F9AEA" stroke-linecap="round"/>
<path d="M187.572 217.509C239.432 211.508 287.862 193.508 309.292 195.222C324.541 196.442 345.722 219.652 357.723 231.224C370.16 243.216 387.295 257.368 389.867 262.511C391.984 266.745 365.866 302.37 361.151 303.655C356.437 304.941 356.866 301.084 353.008 296.798C349.922 293.369 347.008 290.798 344.436 289.512M266.862 170.364C268.29 160.506 271.833 137.876 274.576 126.219C278.005 111.647 282.719 88.5028 284.862 87.2171C286.066 86.4949 294.57 87.6656 304.149 88.9066M327.721 167.792C330.293 162.649 346.151 93.6459 345.722 91.9315C345.294 90.2172 338.865 91.503 325.578 91.0744C319.754 90.8865 311.625 89.8751 304.149 88.9066M304.149 88.9066C304.863 83.9146 306.549 73.7593 307.578 73.0736C308.863 72.2164 325.15 79.0738 330.293 82.074C334.407 84.4741 339.449 87.0225 345.02 91.3083" stroke="#6F9AEA" stroke-linecap="round"/>
<path d="M344.008 100.933C340.15 98.9328 330.464 96.3042 322.578 101.79C312.72 108.648 313.578 115.934 308.435 119.362C303.291 122.791 297.602 120 294.291 121.505C289.577 123.648 287.654 128.406 291.291 132.649C293.863 135.649 299.006 133.077 300.291 136.077C301.577 139.077 294.72 151.078 296.434 159.221C297.156 162.65 298.817 165.64 301.577 167.364C305.006 169.507 308.292 169.507 309.292 169.507" stroke="#6F9AEA" stroke-linecap="round"/>
<path d="M302.863 317.37C303.435 318.085 303.806 323.542 302.435 327.656C300.72 332.799 299.435 334.514 299.435 340.943C299.435 346.086 302.006 348.229 303.292 348.657C326.007 348.657 359.437 348.657 371.009 348.657C374.357 348.657 381.295 347.372 381.295 340.943C381.295 337.514 379.152 334.514 374.866 332.371C368.805 329.34 341.865 322.085 340.151 317.799C338.49 313.648 339.579 310.37 339.722 309.656M368.009 297.655C376.581 301.941 380.781 307.17 383.867 310.941C386.321 313.941 388.56 319.668 394.582 319.942C404.011 320.37 403.153 313.513 411.725 303.655C424.414 289.063 441.491 270.943 443.441 264.225C446.466 253.804 436.155 251.852 430.155 253.939C420.297 257.368 413.868 271.94 405.296 272.368C398.439 272.711 393.296 266.939 389.867 264.225M416.011 210.223C414.297 211.937 412.925 236.024 417.726 243.224C422.526 250.424 431.583 253.226 435.726 253.226C438.726 253.655 444.72 251.592 447.727 247.081C450.298 243.224 450.727 239.807 450.727 232.081C450.727 224.366 449.87 213.651 448.155 211.937C446.784 210.565 420.297 208.937 416.011 210.223Z" stroke="#6F9AEA" stroke-linecap="round"/>
<path d="M450.298 219.224C451.013 218.224 453.651 218.161 455.87 218.795C458.87 219.652 462.119 223.125 461.013 228.653C460.585 230.796 459.299 232.082 456.727 233.796C454.156 235.51 452.013 236.367 450.727 239.367" stroke="#6F9AEA" stroke-linecap="round"/>
<path d="M424.583 209.794C424.726 209.223 425.297 206.366 425.012 204.651C424.726 202.937 423.726 199.508 420.297 197.365C416.153 194.775 399.296 196.08 395.868 195.222C394.01 195.222 390.039 193.937 389.01 188.794C387.724 182.365 394.153 180.222 392.01 175.507C389.867 170.793 373.152 171.221 366.724 158.364C361.58 148.077 367.495 142.077 370.581 139.506C372.638 137.791 377.61 135.22 383.438 135.22C390.724 135.22 395.439 135.648 399.725 141.22C404.011 146.792 401.011 151.078 404.439 157.078C407.868 163.078 416.664 161.049 422.012 164.792C426.297 167.793 429.726 167.364 432.298 181.079C434.066 190.508 431.012 196.08 435.298 205.08C436.788 208.21 440.441 210.223 442.155 210.652" stroke="#6F9AEA" stroke-linecap="round"/>
<rect x="40.5" y="40.5" width="17" height="17" stroke="#6F9AEA"/>
<rect x="61.5" y="40.5" width="17" height="17" stroke="#6F9AEA"/>
<rect x="40.5" y="61.5" width="17" height="17" stroke="#6F9AEA"/>
<rect x="61.5" y="61.5" width="17" height="17" stroke="#6F9AEA"/>
</svg>
