<svg width="598" height="399" viewBox="0 0 598 399" fill="none" xmlns="http://www.w3.org/2000/svg">
<g clip-path="url(#clip0_181_742)">
<path d="M401.401 146.518C403.643 147.564 407.948 151.54 407.23 159.073C406.513 166.607 400.055 171.48 396.917 172.974" stroke="#3A86FE" stroke-linecap="round"/>
<path d="M386.603 111.541C389.443 111.242 395.75 113.962 398.261 120.06C400.773 126.159 399.308 132.168 398.261 135.307" stroke="#3A86FE" stroke-linecap="round"/>
<path d="M204.992 284.183C201.405 287.77 193.782 298.622 191.988 313.33C190.194 328.038 191.241 348.755 191.988 357.275L202.75 355.033C200.923 343.939 199.551 322.473 201.622 310.639M210.373 291.357C209.775 292.852 206.157 296.788 202.75 306.155C202.295 307.406 201.922 308.921 201.622 310.639M201.622 310.639C205.137 316.618 214.05 329.473 221.584 333.06C231.001 337.545 239.072 342.477 244.902 346.513C249.565 349.742 258.354 358.62 261.493 362.208M359.5 401C351 396.5 330.191 376.199 319.788 364.002C309.385 351.804 294.228 333.21 287.95 325.437" stroke="#3A86FE" stroke-linecap="round"/>
<path d="M290.192 238.893C290.192 240.088 289.744 241.314 287.95 243.825C285.708 246.964 283.018 249.206 281.224 252.794C278.743 257.755 278.533 263.107 279.879 269.834C281.224 276.56 291.089 292.255 291.089 304.81C291.089 314.855 285.708 326.335 281.672 330.37" stroke="#3A86FE" stroke-linecap="round"/>
<path d="M244.005 302.119C242.959 302.568 240.776 304.989 240.418 311.088C240.059 317.186 240.866 323.195 241.315 325.437M248.938 350.1C243.258 353.986 230.279 360.975 226.965 363.553C222.929 366.692 221.584 370.728 222.929 373.866C224.275 377.005 234.14 383.283 237.279 390.458C239.79 396.198 240.418 398.53 240.418 398.978" stroke="#3A86FE" stroke-linecap="round"/>
<path d="M223.826 374.764C224.125 375.661 226.248 377.186 232.346 376.11C239.969 374.764 256.112 368.935 265.529 359.07C274.946 349.204 290.263 331.931 288.399 326.335C287.95 324.989 287.054 324.541 285.708 324.99" stroke="#3A86FE" stroke-linecap="round"/>
<path d="M196.024 298.084C193.782 294.497 188.977 288.667 190.195 280.147C191.271 272.613 194.679 266.246 200.06 263.555C205.646 260.762 210.373 261.313 213.961 264.452C217.548 267.591 220.239 273.421 226.068 278.353C231.898 283.286 244.762 293.534 235.933 300.326C230.104 304.81 224.274 302.805 221.136 300.774C218.594 299.13 212.077 294.317 208.131 288.218C204.185 282.12 202.9 280.446 202.75 280.147" stroke="#3A86FE" stroke-linecap="round"/>
<path d="M201.405 262.658C201.255 260.566 201.853 255.573 205.441 252.345C210.423 247.861 217.997 247.86 221.584 251C223.976 252.495 228.311 257.726 233.692 264.452C240.374 272.805 249.835 282.389 253.422 286.425C257.009 290.461 258.803 295.394 254.767 300.326C250.912 305.038 244.155 302.419 241.763 300.774L238.176 298.533" stroke="#3A86FE" stroke-linecap="round"/>
<path d="M212.167 248.758C211.121 246.217 211.091 241.404 217.548 237.099C225.62 231.718 234.586 233.095 240.418 233.512C246.696 233.96 255.216 234.857 259.252 237.099C262.624 238.973 265.278 243.32 264.184 246.964C262.839 251.449 259.7 253.69 253.422 254.587C245.876 255.665 235.934 250.103 233.692 246.067M233.692 264.453C234.439 263.406 237.26 261.476 240.866 259.072C244.902 256.381 247.592 255.036 248.938 254.587M228.31 257.726C229.656 256.381 231.808 254.767 233.243 253.691C234.678 252.614 236.83 251.448 238.624 250.631M255.664 285.977C255.814 285.528 256.382 284.273 257.458 282.838C258.534 281.403 259.401 280.446 259.7 280.147" stroke="#3A86FE" stroke-linecap="round"/>
<path d="M258.803 253.242C258.205 254.289 257.009 257.816 257.009 263.556C257.009 269.296 258.803 277.008 259.7 280.147" stroke="#3A86FE" stroke-linecap="round"/>
<path d="M235.485 233.063C240.567 229.476 251.629 221.314 255.216 217.368C259.7 212.436 265.978 205.709 270.462 203.916C274.708 202.217 279.116 202.256 281.673 204.812C284.363 207.502 284.363 210.194 284.363 213.781C284.363 216.92 282.868 220.656 282.57 220.507" stroke="#3A86FE" stroke-linecap="round"/>
<path d="M244.902 226.337C237.578 223.497 221.943 214.319 217.997 200.328C213.064 182.84 213.961 155.934 220.688 153.244C227.414 150.553 251.18 160.867 257.906 179.7C263.287 194.767 262.391 204.663 261.942 210.194" stroke="#3A86FE" stroke-linecap="round"/>
<path d="M241.314 259.071C242.062 261.014 244.083 264.661 245.35 266.246C247.144 268.488 248.041 269.833 250.283 271.627" stroke="#3A86FE" stroke-linecap="round"/>
<path d="M264.632 243.825C267.024 242.928 271.807 239.789 276.291 236.651C280.245 233.883 283.167 231.269 284.363 230.372C284.811 229.774 285.977 228.937 287.053 230.372C288.399 232.166 292.883 257.278 314.407 266.695C335.931 276.112 367.321 268.04 370.908 260.865C374.323 254.035 357.455 232.615 341.312 226.786C325.169 220.956 296.022 228.579 292.883 226.785C292.733 227.084 292.345 227.234 291.986 225.44C291.538 223.198 302.655 213.231 307.232 206.158C312.165 198.535 316.649 190.463 319.788 187.324" stroke="#3A86FE" stroke-linecap="round"/>
<path d="M259.251 237.098C266.426 233.063 281.383 222.582 290.193 213.332C299.161 203.915 307.681 190.014 310.371 183.736" stroke="#3A86FE" stroke-linecap="round"/>
<path d="M314.407 177.01C312.913 174.469 308.488 168.939 302.748 167.145C295.574 164.903 288.175 167.144 286.605 173.423C285.709 177.011 285.26 185.53 295.574 185.978C303.825 186.337 308.877 184.633 310.371 183.736" stroke="#3A86FE" stroke-linecap="round"/>
<path d="M320.236 186.427C319.638 190.164 319.799 198.106 322.03 202.122C324.272 206.158 329.332 208.802 334.137 207.055C339.07 205.261 339.967 200.104 337.277 194.05C335.483 190.015 329.205 184.634 324.272 182.84" stroke="#3A86FE" stroke-linecap="round"/>
<path d="M314.407 177.458C317.845 167.593 328.577 145.889 344.003 137.997C363.285 128.132 378.083 133.513 383.016 143.827C386.661 151.45 386.524 165.351 373.599 171.629C356.634 179.869 353.868 174.319 341.312 176.561C331.268 178.355 325.767 181.494 324.272 182.839" stroke="#3A86FE" stroke-linecap="round"/>
<path d="M330.102 149.656C330.551 144.873 328.398 132.796 319.788 124.545C309.026 114.231 295.574 111.988 287.054 118.715C280.085 124.217 278.086 137.997 287.054 145.172C296.022 152.346 304.094 152.346 309.923 157.727C315.729 163.086 316.201 169.386 316.65 171.629" stroke="#3A86FE" stroke-linecap="round"/>
<path d="M343.106 137.998C342.508 133.813 344.974 122.552 354.765 116.025C364.182 109.747 374.944 110.196 382.567 115.128C387.948 118.61 392.432 124.981 392.432 132.617C392.432 141.138 387.2 145.023 384.36 146.966" stroke="#3A86FE" stroke-linecap="round"/>
<path d="M344.003 176.113C348.188 180.149 359.429 188.4 370.908 189.117C385.258 190.014 391.984 184.185 394.674 180.149C397.365 176.113 397.813 167.593 395.571 164.006" stroke="#3A86FE" stroke-linecap="round"/>
<path d="M376.738 170.283C383.464 170.283 397.634 166.965 400.504 153.692C403.374 140.419 396.319 132.616 392.433 130.374" stroke="#3A86FE" stroke-linecap="round"/>
<path d="M307.232 116.473C307.531 112.587 310.814 105.041 319.34 100.778C327.411 96.7424 337.388 99.1742 342.658 103.917C347.142 107.953 349.982 115.427 350.729 119.163" stroke="#3A86FE" stroke-linecap="round"/>
<path d="M293.331 115.576C291.537 113.035 290.174 106.958 297.815 101.227C304.99 95.8458 315.304 97.1906 319.339 100.33" stroke="#3A86FE" stroke-linecap="round"/>
<path d="M310.372 97.6396C310.521 95.0985 312.883 89.3886 321.134 86.8775C329.385 84.3663 338.622 87.7744 341.313 90.4648" stroke="#3A86FE" stroke-linecap="round"/>
<path d="M358.353 95.3979C362.837 93.6042 372.89 92.455 378.98 97.1916C387.051 103.47 386.603 113.783 385.706 117.37" stroke="#3A86FE" stroke-linecap="round"/>
<path d="M330.102 98.537C332.045 94.6506 338.801 87.7749 350.281 91.3622C361.761 94.9496 365.228 106.309 365.527 111.541" stroke="#3A86FE" stroke-linecap="round"/>
<path d="M453 100C452.675 104.918 451.593 114.351 449 118.5C446.5 122.5 444.5 123.5 440 125" stroke="#3A86FE"/>
<path d="M473 84C472.825 86.5574 472.243 91.4624 470.846 93.62C469.5 95.7 468.423 96.22 466 97" stroke="#3A86FE"/>
<path d="M453 150C452.675 145.082 451.593 135.649 449 131.5C446.5 127.5 444.5 126.5 440 125" stroke="#3A86FE"/>
<path d="M473 111C472.825 108.246 472.243 102.964 470.846 100.64C469.5 98.4 468.423 97.84 466 97" stroke="#3A86FE"/>
<path d="M453 100C453.325 104.918 454.407 114.351 457 118.5C459.5 122.5 461.5 123.5 466 125" stroke="#3A86FE"/>
<path d="M473 84C473.175 86.5574 473.757 91.4624 475.154 93.62C476.5 95.7 477.577 96.22 480 97" stroke="#3A86FE"/>
<path d="M453 150C453.325 145.082 454.407 135.649 457 131.5C459.5 127.5 461.5 126.5 466 125" stroke="#3A86FE"/>
<path d="M473 111C473.175 108.246 473.757 102.964 475.154 100.64C476.5 98.4 477.577 97.84 480 97" stroke="#3A86FE"/>
</g>
<defs>
<clipPath id="clip0_181_742">
<rect width="598" height="399" fill="white"/>
</clipPath>
</defs>
</svg>
