<svg width="598" height="399" viewBox="0 0 598 399" fill="none" xmlns="http://www.w3.org/2000/svg">
<g clip-path="url(#clip0_181_742)">
<path d="M409.401 146.518C411.643 147.564 415.948 151.54 415.23 159.073C414.513 166.607 408.055 171.48 404.917 172.974" stroke="#3A86FE" stroke-linecap="round"/>
<path d="M394.603 111.541C397.443 111.242 403.75 113.962 406.261 120.06C408.773 126.159 407.308 132.168 406.261 135.307" stroke="#3A86FE" stroke-linecap="round"/>
<path d="M212.992 284.183C209.405 287.77 201.782 298.622 199.988 313.33C198.194 328.038 199.241 348.755 199.988 357.275L210.75 355.033C208.923 343.939 207.551 322.473 209.622 310.639M218.373 291.357C217.775 292.852 214.157 296.788 210.75 306.155C210.295 307.406 209.922 308.921 209.622 310.639M209.622 310.639C213.137 316.618 222.05 329.473 229.584 333.06C239.001 337.545 247.072 342.477 252.902 346.513C257.565 349.742 266.354 358.62 269.493 362.208M367.5 401C359 396.5 338.191 376.199 327.788 364.002C317.385 351.804 302.228 333.21 295.95 325.437" stroke="#3A86FE" stroke-linecap="round"/>
<path d="M298.192 238.893C298.192 240.088 297.744 241.314 295.95 243.825C293.708 246.964 291.018 249.206 289.224 252.794C286.743 257.755 286.533 263.107 287.879 269.834C289.224 276.56 299.089 292.255 299.089 304.81C299.089 314.855 293.708 326.335 289.672 330.37" stroke="#3A86FE" stroke-linecap="round"/>
<path d="M252.005 302.119C250.959 302.568 248.776 304.989 248.418 311.088C248.059 317.186 248.866 323.195 249.315 325.437M256.938 350.1C251.258 353.986 238.279 360.975 234.965 363.553C230.929 366.692 229.584 370.728 230.929 373.866C232.275 377.005 242.14 383.283 245.279 390.458C247.79 396.198 248.418 398.53 248.418 398.978" stroke="#3A86FE" stroke-linecap="round"/>
<path d="M231.826 374.764C232.125 375.661 234.248 377.186 240.346 376.11C247.969 374.764 264.112 368.935 273.529 359.07C282.946 349.204 298.263 331.931 296.399 326.335C295.95 324.989 295.054 324.541 293.708 324.99" stroke="#3A86FE" stroke-linecap="round"/>
<path d="M204.024 298.084C201.782 294.497 196.977 288.667 198.195 280.147C199.271 272.613 202.679 266.246 208.06 263.555C213.646 260.762 218.373 261.313 221.961 264.452C225.548 267.591 228.239 273.421 234.068 278.353C239.898 283.286 252.762 293.534 243.933 300.326C238.104 304.81 232.274 302.805 229.136 300.774C226.594 299.13 220.077 294.317 216.131 288.218C212.185 282.12 210.9 280.446 210.75 280.147" stroke="#3A86FE" stroke-linecap="round"/>
<path d="M209.405 262.658C209.255 260.566 209.853 255.573 213.441 252.345C218.423 247.861 225.997 247.86 229.584 251C231.976 252.495 236.311 257.726 241.692 264.452C248.374 272.805 257.835 282.389 261.422 286.425C265.009 290.461 266.803 295.394 262.767 300.326C258.912 305.038 252.155 302.419 249.763 300.774L246.176 298.533" stroke="#3A86FE" stroke-linecap="round"/>
<path d="M220.167 248.758C219.121 246.217 219.091 241.404 225.548 237.099C233.62 231.718 242.586 233.095 248.418 233.512C254.696 233.96 263.216 234.857 267.252 237.099C270.624 238.973 273.278 243.32 272.184 246.964C270.839 251.449 267.7 253.69 261.422 254.587C253.876 255.665 243.934 250.103 241.692 246.067M241.692 264.453C242.439 263.406 245.26 261.476 248.866 259.072C252.902 256.381 255.592 255.036 256.938 254.587M236.31 257.726C237.656 256.381 239.808 254.767 241.243 253.691C242.678 252.614 244.83 251.448 246.624 250.631M263.664 285.977C263.814 285.528 264.382 284.273 265.458 282.838C266.534 281.403 267.401 280.446 267.7 280.147" stroke="#3A86FE" stroke-linecap="round"/>
<path d="M266.803 253.242C266.205 254.289 265.009 257.816 265.009 263.556C265.009 269.296 266.803 277.008 267.7 280.147" stroke="#3A86FE" stroke-linecap="round"/>
<path d="M243.485 233.063C248.567 229.476 259.629 221.314 263.216 217.368C267.7 212.436 273.978 205.709 278.462 203.916C282.708 202.217 287.116 202.256 289.673 204.812C292.363 207.502 292.363 210.194 292.363 213.781C292.363 216.92 290.868 220.656 290.57 220.507" stroke="#3A86FE" stroke-linecap="round"/>
<path d="M252.902 226.337C245.578 223.497 229.943 214.319 225.997 200.328C221.064 182.84 221.961 155.934 228.688 153.244C235.414 150.553 259.18 160.867 265.906 179.7C271.287 194.767 270.391 204.663 269.942 210.194" stroke="#3A86FE" stroke-linecap="round"/>
<path d="M249.314 259.071C250.062 261.014 252.083 264.661 253.35 266.246C255.144 268.488 256.041 269.833 258.283 271.627" stroke="#3A86FE" stroke-linecap="round"/>
<path d="M272.632 243.825C275.024 242.928 279.807 239.789 284.291 236.651C288.245 233.883 291.167 231.269 292.363 230.372C292.811 229.774 293.977 228.937 295.053 230.372C296.399 232.166 300.883 257.278 322.407 266.695C343.931 276.112 375.321 268.04 378.908 260.865C382.323 254.035 365.455 232.615 349.312 226.786C333.169 220.956 304.022 228.579 300.883 226.785C300.733 227.084 300.345 227.234 299.986 225.44C299.538 223.198 310.655 213.231 315.232 206.158C320.165 198.535 324.649 190.463 327.788 187.324" stroke="#3A86FE" stroke-linecap="round"/>
<path d="M267.251 237.098C274.426 233.063 289.383 222.582 298.193 213.332C307.161 203.915 315.681 190.014 318.371 183.736" stroke="#3A86FE" stroke-linecap="round"/>
<path d="M322.407 177.01C320.913 174.469 316.488 168.939 310.748 167.145C303.574 164.903 296.175 167.144 294.605 173.423C293.709 177.011 293.26 185.53 303.574 185.978C311.825 186.337 316.877 184.633 318.371 183.736" stroke="#3A86FE" stroke-linecap="round"/>
<path d="M328.236 186.427C327.638 190.164 327.799 198.106 330.03 202.122C332.272 206.158 337.332 208.802 342.137 207.055C347.07 205.261 347.967 200.104 345.277 194.05C343.483 190.015 337.205 184.634 332.272 182.84" stroke="#3A86FE" stroke-linecap="round"/>
<path d="M322.407 177.458C325.845 167.593 336.577 145.889 352.003 137.997C371.285 128.132 386.083 133.513 391.016 143.827C394.661 151.45 394.524 165.351 381.599 171.629C364.634 179.869 361.868 174.319 349.312 176.561C339.268 178.355 333.767 181.494 332.272 182.839" stroke="#3A86FE" stroke-linecap="round"/>
<path d="M338.102 149.656C338.551 144.873 336.398 132.796 327.788 124.545C317.026 114.231 303.574 111.988 295.054 118.715C288.085 124.217 286.086 137.997 295.054 145.172C304.022 152.346 312.094 152.346 317.923 157.727C323.729 163.086 324.201 169.386 324.65 171.629" stroke="#3A86FE" stroke-linecap="round"/>
<path d="M351.106 137.998C350.508 133.813 352.974 122.552 362.765 116.025C372.182 109.747 382.944 110.196 390.567 115.128C395.948 118.61 400.432 124.981 400.432 132.617C400.432 141.138 395.2 145.023 392.36 146.966" stroke="#3A86FE" stroke-linecap="round"/>
<path d="M352.003 176.113C356.188 180.149 367.429 188.4 378.908 189.117C393.258 190.014 399.984 184.185 402.674 180.149C405.365 176.113 405.813 167.593 403.571 164.006" stroke="#3A86FE" stroke-linecap="round"/>
<path d="M384.738 170.283C391.464 170.283 405.634 166.965 408.504 153.692C411.374 140.419 404.319 132.616 400.433 130.374" stroke="#3A86FE" stroke-linecap="round"/>
<path d="M315.232 116.473C315.531 112.587 318.814 105.041 327.34 100.778C335.411 96.7424 345.388 99.1742 350.658 103.917C355.142 107.953 357.982 115.427 358.729 119.163" stroke="#3A86FE" stroke-linecap="round"/>
<path d="M301.331 115.576C299.537 113.035 298.174 106.958 305.815 101.227C312.99 95.8458 323.304 97.1906 327.339 100.33" stroke="#3A86FE" stroke-linecap="round"/>
<path d="M318.372 97.6396C318.521 95.0985 320.883 89.3886 329.134 86.8775C337.385 84.3663 346.622 87.7744 349.313 90.4648" stroke="#3A86FE" stroke-linecap="round"/>
<path d="M366.353 95.3979C370.837 93.6042 380.89 92.455 386.98 97.1916C395.051 103.47 394.603 113.783 393.706 117.37" stroke="#3A86FE" stroke-linecap="round"/>
<path d="M338.102 98.537C340.045 94.6506 346.801 87.7749 358.281 91.3622C369.761 94.9496 373.228 106.309 373.527 111.541" stroke="#3A86FE" stroke-linecap="round"/>
</g>
<defs>
<clipPath id="clip0_181_742">
<rect width="598" height="399" fill="white"/>
</clipPath>
</defs>
</svg>
