<svg width="244" height="351" viewBox="0 0 244 351" fill="none" xmlns="http://www.w3.org/2000/svg">
<path d="M236.717 68.4785C239.217 69.6452 244.017 74.0785 243.217 82.4785C242.417 90.8785 235.217 96.3118 231.717 97.9785" stroke="#6F9AEA" stroke-linecap="round"/>
<path d="M220.217 29.4788C223.383 29.1455 230.417 32.1785 233.217 38.9785C236.017 45.7785 234.383 52.4788 233.217 55.9788" stroke="#6F9AEA" stroke-linecap="round"/>
<path d="M17.7166 221.979C13.7166 225.979 5.21661 238.079 3.21661 254.479C1.21661 270.879 2.38327 293.979 3.21661 303.479L15.2168 300.979C13.1793 288.608 11.6502 264.673 13.9584 251.479M23.7168 229.979C23.0501 231.645 19.0149 236.034 15.2168 246.479C14.7096 247.873 14.2936 249.563 13.9584 251.479M13.9584 251.479C17.8779 258.145 27.8168 272.479 36.2168 276.479C46.7168 281.479 55.7168 286.979 62.2168 291.479C67.4168 295.079 77.2168 304.979 80.7168 308.979M183.217 346.979C175.55 340.645 157.317 324.579 145.717 310.979C134.117 297.379 117.217 276.645 110.217 267.979" stroke="#6F9AEA" stroke-linecap="round"/>
<path d="M112.716 171.479C112.716 172.812 112.216 174.179 110.216 176.979C107.716 180.479 104.717 182.979 102.716 186.979C99.9501 192.51 99.7164 198.479 101.216 205.979C102.716 213.479 113.716 230.979 113.716 244.979C113.716 256.179 107.716 268.979 103.216 273.479" stroke="#6F9AEA" stroke-linecap="round"/>
<path d="M61.2168 241.979C60.0502 242.479 57.6168 245.179 57.2168 251.979C56.8168 258.779 57.7168 265.479 58.2168 267.979M66.7168 295.479C60.3834 299.812 45.9123 307.604 42.2168 310.479C37.717 313.979 36.2168 318.479 37.7168 321.979C39.2168 325.479 50.2172 332.479 53.717 340.479C56.5169 346.879 57.2168 349.479 57.2168 349.979" stroke="#6F9AEA" stroke-linecap="round"/>
<path d="M38.7168 322.979C39.0501 323.979 41.4168 325.679 48.2168 324.479C56.7168 322.979 74.7168 316.479 85.2168 305.479C95.7168 294.479 112.796 275.218 110.717 268.979C110.217 267.478 109.217 266.979 107.717 267.479" stroke="#6F9AEA" stroke-linecap="round"/>
<path d="M7.71701 237.478C5.21732 233.479 -0.140544 226.979 1.21701 217.478C2.41733 209.078 6.2169 201.979 12.2169 198.978C18.4457 195.863 23.7168 196.478 27.7168 199.978C31.7168 203.478 34.7168 209.978 41.2168 215.478C47.7168 220.978 62.061 232.406 52.2168 239.978C45.7168 244.978 39.2168 242.743 35.7168 240.478C32.8835 238.645 25.6168 233.278 21.2168 226.478C16.8168 219.678 15.3835 217.812 15.2168 217.478" stroke="#6F9AEA" stroke-linecap="round"/>
<path d="M13.7163 197.978C13.5496 195.645 14.2161 190.078 18.2163 186.478C23.7721 181.479 32.2168 181.478 36.2168 184.978C38.8835 186.645 43.7168 192.478 49.7168 199.978C57.1676 209.291 67.7168 219.978 71.7168 224.478C75.7168 228.978 77.7168 234.479 73.2168 239.979C68.9182 245.232 61.3835 242.312 58.7168 240.478L54.7168 237.979" stroke="#6F9AEA" stroke-linecap="round"/>
<path d="M25.717 182.479C24.5503 179.645 24.517 174.279 31.717 169.479C40.717 163.479 50.7146 165.014 57.2173 165.479C64.2173 165.979 73.7173 166.979 78.2173 169.479C81.9772 171.568 84.9363 176.415 83.7173 180.479C82.2173 185.479 78.7173 187.978 71.7173 188.978C63.3027 190.18 52.2173 183.978 49.7173 179.478M49.7173 199.979C50.5505 198.812 53.6956 196.66 57.717 193.979C62.2168 190.979 65.2168 189.479 66.7168 188.979M43.7168 192.479C45.2168 190.979 47.6168 189.179 49.2168 187.979C50.8168 186.779 53.2168 185.479 55.2168 184.567M74.2168 223.979C74.3835 223.479 75.0168 222.079 76.2168 220.479C77.4168 218.879 78.3835 217.812 78.7168 217.479" stroke="#6F9AEA" stroke-linecap="round"/>
<path d="M77.7168 187.479C77.0501 188.645 75.7168 192.579 75.7168 198.979C75.7168 205.379 77.7168 213.979 78.7168 217.479" stroke="#6F9AEA" stroke-linecap="round"/>
<path d="M51.7168 164.978C57.3835 160.978 69.7168 151.878 73.7168 147.478C78.7168 141.978 85.7168 134.478 90.7168 132.479C95.4512 130.585 100.366 130.628 103.217 133.478C106.217 136.478 106.217 139.479 106.217 143.479C106.217 146.979 104.55 151.145 104.217 150.978" stroke="#6F9AEA" stroke-linecap="round"/>
<path d="M62.2169 157.478C54.0503 154.311 36.6169 144.078 32.2169 128.478C26.7169 108.978 27.7169 78.9781 35.2169 75.9781C42.7169 72.9781 69.2168 84.4778 76.7168 105.478C82.7168 122.278 81.7168 133.312 81.2168 139.478" stroke="#6F9AEA" stroke-linecap="round"/>
<path d="M58.2168 193.979C59.0501 196.145 61.3033 200.212 62.7168 201.979C64.7168 204.479 65.7168 205.979 68.2168 207.979" stroke="#6F9AEA" stroke-linecap="round"/>
<path d="M84.2168 176.978C86.8835 175.978 92.2168 172.479 97.2168 168.979C101.625 165.892 104.883 162.978 106.217 161.978C106.717 161.312 108.017 160.378 109.217 161.978C110.717 163.978 115.717 191.979 139.717 202.479C163.717 212.979 198.717 203.979 202.717 195.979C206.525 188.363 187.717 164.479 169.717 157.979C151.717 151.479 119.217 159.979 115.717 157.979C115.55 158.312 115.117 158.479 114.717 156.479C114.217 153.979 126.613 142.866 131.717 134.979C137.217 126.479 142.217 117.479 145.717 113.979" stroke="#6F9AEA" stroke-linecap="round"/>
<path d="M78.2168 169.479C86.2168 164.979 102.894 153.293 112.717 142.979C122.717 132.479 132.217 116.979 135.217 109.979" stroke="#6F9AEA" stroke-linecap="round"/>
<path d="M139.717 102.479C138.05 99.6454 133.117 93.4787 126.717 91.4787C118.717 88.9787 110.467 91.4781 108.717 98.4791C107.717 102.479 107.217 111.978 118.717 112.478C127.917 112.878 133.55 110.978 135.217 109.978" stroke="#6F9AEA" stroke-linecap="round"/>
<path d="M146.216 112.979C145.55 117.145 145.729 126.001 148.216 130.479C150.717 134.979 156.359 137.927 161.717 135.979C167.217 133.979 168.217 128.229 165.217 121.479C163.217 116.979 156.217 110.979 150.717 108.979" stroke="#6F9AEA" stroke-linecap="round"/>
<path d="M139.717 102.979C143.55 91.9785 155.517 67.7785 172.717 58.9785C194.217 47.9785 210.717 53.9787 216.217 65.4787C220.282 73.9785 220.128 89.4785 205.717 96.4785C186.8 105.666 183.717 99.4785 169.717 101.978C158.517 103.978 152.383 107.478 150.717 108.978" stroke="#6F9AEA" stroke-linecap="round"/>
<path d="M157.217 71.9782C157.717 66.6449 155.317 53.1784 145.717 43.9784C133.717 32.4784 118.717 29.9778 109.217 37.4783C101.447 43.6128 99.2172 58.9779 109.217 66.9779C119.217 74.9779 128.217 74.9779 134.717 80.9779C141.19 86.9529 141.717 93.9779 142.217 96.4779" stroke="#6F9AEA" stroke-linecap="round"/>
<path d="M171.717 58.9785C171.05 54.3118 173.799 41.7561 184.717 34.478C195.217 27.4782 207.217 27.9785 215.716 33.4785C221.717 37.361 226.716 44.464 226.716 52.9787C226.716 62.4793 220.883 66.8114 217.716 68.9781" stroke="#6F9AEA" stroke-linecap="round"/>
<path d="M172.717 101.479C177.383 105.979 189.917 115.179 202.717 115.979C218.717 116.979 226.217 110.479 229.217 105.979C232.217 101.479 232.717 91.9785 230.217 87.9785" stroke="#6F9AEA" stroke-linecap="round"/>
<path d="M209.217 94.9785C216.717 94.9785 232.517 91.2785 235.717 76.4785C238.917 61.6785 231.05 52.9785 226.717 50.4785" stroke="#6F9AEA" stroke-linecap="round"/>
<path d="M131.717 34.9786C132.05 30.6453 135.711 22.2319 145.217 17.4786C154.217 12.9785 165.34 15.6901 171.217 20.9786C176.217 25.4786 179.383 33.8118 180.217 37.9784" stroke="#6F9AEA" stroke-linecap="round"/>
<path d="M116.216 33.978C114.216 31.1447 112.696 24.3685 121.216 17.978C129.216 11.9783 140.716 13.4777 145.216 16.9784" stroke="#6F9AEA" stroke-linecap="round"/>
<path d="M135.217 13.9784C135.383 11.1451 138.017 4.77841 147.217 1.97841C156.417 -0.821594 166.717 2.97852 169.717 5.97841" stroke="#6F9AEA" stroke-linecap="round"/>
<path d="M188.717 11.4785C193.717 9.47846 204.927 8.1971 211.717 13.4785C220.717 20.4786 220.217 31.9785 219.217 35.9781" stroke="#6F9AEA" stroke-linecap="round"/>
<path d="M157.217 14.9788C159.383 10.6454 166.917 2.97878 179.717 6.97878C192.517 10.9788 196.383 23.6453 196.717 29.4785" stroke="#6F9AEA" stroke-linecap="round"/>
</svg>
