<svg width="598" height="399" viewBox="0 0 598 399" fill="none" xmlns="http://www.w3.org/2000/svg">
<path d="M480.973 245.896C480.973 255.078 480.973 274.819 480.973 280.328C480.973 285.838 485.713 286.832 488.084 286.641H495.194" stroke="#3A86FE" stroke-linecap="round"/>
<path d="M512.828 248.739C512.828 248.739 515.401 273.254 515.672 279.345C515.943 285.436 516.241 287.846 516.241 291.247C516.241 291.488 516.036 291.678 515.672 291.824M495.763 260.641C496.142 267.065 496.332 279.912 496.332 283.879C496.332 287.085 496.521 288.98 496.901 289.547C497.659 290.68 502.361 291.36 506.002 291.814C509.688 292.273 514.121 292.448 515.672 291.824M482.68 284.446C480.974 284.635 478.129 285.534 478.129 287.846C478.129 290.113 479.456 291.058 479.835 291.247M498.607 290.68C498.038 290.68 496.332 291.7 496.332 293.514C496.332 295.328 497.47 295.781 498.038 296.348M515.672 291.824C516.241 292.198 517.947 293.623 517.947 296.915C517.947 299.182 515.672 300.882 514.535 300.882" stroke="#3A86FE" stroke-linecap="round"/>
<path d="M512.491 310.006L82.7473 185.9C79.9196 184.766 78.2231 182.499 79.3545 179.666C80.7634 176.137 83.3124 176.267 86.7054 177.4L514.753 302.073C517.014 302.639 519.615 305.019 518.711 307.739C517.806 310.459 514.941 310.761 512.491 310.006Z" stroke="#3A86FE" stroke-linecap="round"/>
<path d="M286.314 251.369C285.748 252.5 266.239 307.045 266.239 307.045C265.674 308.176 264.485 312.491 264.817 314.155C265.383 316.984 269.752 316.985 270.505 316.985H311.754C312.13 316.985 314.391 316.2 315.064 314.629C316.486 311.311 314.682 308.268 314.116 306.571C314.116 306.571 297.055 251.935 296.49 250.238C295.924 248.541 294.115 246.844 291.402 246.844C288.688 246.844 286.879 250.238 286.314 251.369Z" stroke="#3A86FE" stroke-linecap="round"/>
<circle cx="495.194" cy="185.221" r="13.7207" stroke="#3A86FE"/>
<path d="M487.806 247.048L480.025 245.919C480.025 240.841 480.248 227.526 481.137 214.887C481.755 206.101 486.348 202.911 490.585 201.338M502.811 248.74H512.259C512.074 242.534 511.37 227.074 510.036 214.887C509.191 207.165 505.59 202.735 501.144 201.338" stroke="#3A86FE" stroke-linecap="round"/>
<path d="M490.053 216.507C489.866 224.828 489.157 243.626 487.813 252.249C486.469 260.873 492.106 261.705 495.092 260.759C496.772 260.227 498.497 258.997 500.132 256.788C501.812 254.519 502.931 248.845 504.051 236.931C505.244 224.248 504.425 218.02 504.051 216.507" stroke="#3A86FE" stroke-linecap="round"/>
<path d="M488.722 251.348L501.17 252.479" stroke="#3A86FE" stroke-linecap="round"/>
<path d="M491.402 198.114V201.527C491.774 202.096 493.633 203.233 495.863 203.233C498.094 203.233 500.325 202.096 500.882 200.958V197.545" stroke="#3A86FE" stroke-linecap="round"/>
<path d="M486.809 174.792C486.443 176.746 486.503 181.024 490.102 183.586C493.396 185.931 499.434 185.345 500.532 185.345C501.63 185.345 503.277 185.931 502.728 187.69C502.196 189.393 501.471 190.281 502.179 191.794C502.887 193.307 506.022 192.967 506.571 191.794" stroke="#3A86FE" stroke-linecap="round"/>
<path d="M118.1 241.729C118.1 232.676 118.1 213.211 118.1 207.779C118.1 202.347 113.196 201.367 110.744 201.555L103.388 201.555" stroke="#3A86FE" stroke-linecap="round"/>
<path d="M86.4139 238.9C86.4139 238.9 83.8542 214.427 83.5846 208.345C83.315 202.264 83.0188 199.858 83.0188 196.463C83.0188 196.222 83.2229 196.033 83.5846 195.887M103.389 227.018C103.012 220.605 102.823 207.779 102.823 203.819C102.823 200.618 102.635 198.726 102.257 198.16C101.503 197.029 96.8253 196.35 93.2039 195.897C89.537 195.439 85.1274 195.264 83.5846 195.887M116.403 203.253C118.101 203.064 120.93 202.166 120.93 199.858C120.93 197.594 119.61 196.651 119.233 196.463M100.56 197.029C101.126 197.029 102.823 196.01 102.823 194.199C102.823 192.389 101.691 191.936 101.125 191.37M83.5846 195.887C83.0188 195.513 81.3213 194.091 81.3213 190.804C81.3213 188.541 83.5846 186.844 84.7163 186.844" stroke="#3A86FE" stroke-linecap="round"/>
<circle cx="103.954" cy="302.839" r="13.6459" transform="rotate(-180 103.954 302.839)" stroke="#3A86FE"/>
<path d="M111.31 241.155L119.232 242.287C119.232 247.379 119.006 260.733 118.1 273.408C117.471 282.219 112.794 285.418 108.481 286.996M96.0327 239.458L86.4135 239.458C86.6021 245.682 87.3189 261.186 88.6769 273.408C89.5373 281.152 93.2035 285.595 97.7302 286.996" stroke="#3A86FE" stroke-linecap="round"/>
<path d="M109.047 271.152C109.236 262.853 109.952 244.105 111.31 235.505C112.668 226.904 106.972 226.074 103.955 227.017C102.257 227.548 100.514 228.775 98.8622 230.978C97.1647 233.241 96.033 238.9 94.9014 250.782C93.6966 263.432 94.5241 269.643 94.9013 271.152" stroke="#3A86FE" stroke-linecap="round"/>
<path d="M110.179 236.637L97.7304 235.505" stroke="#3A86FE" stroke-linecap="round"/>
<path d="M107.915 289.825L107.915 286.43C107.538 285.864 105.652 284.732 103.388 284.732C101.125 284.732 98.8617 285.864 98.2959 286.996L98.2959 290.391" stroke="#3A86FE" stroke-linecap="round"/>
<path d="M112.442 313.024C112.819 311.138 112.757 307.01 109.047 304.537C105.652 302.274 99.4277 302.839 98.296 302.839C97.1643 302.839 95.4668 302.274 96.0328 300.576C96.5808 298.933 97.3284 298.075 96.5985 296.615C95.8686 295.155 92.6377 295.484 92.0718 296.615" stroke="#3A86FE" stroke-linecap="round"/>
<path d="M185.182 317L405.129 317" stroke="#3A86FE" stroke-linecap="round"/>
</svg>
