<svg width="352" height="227" viewBox="0 0 352 227" fill="none" xmlns="http://www.w3.org/2000/svg">
<circle cx="255" cy="133.66" r="15.5" stroke="#6F9AEA"/>
<path d="M103.5 124.66C102.5 134.16 97.0997 151.46 89.4997 156.66C79.9997 163.16 35.0002 162.16 24.5002 163.66C14.0002 165.16 0.99982 167.66 1 176.66C1.00018 185.469 6.49967 185.16 9.99967 185.16C29.1241 184.834 60.717 183.446 81.4997 182.38M258 149.16C259.166 150.993 261.7 156.36 262.5 163.16C263.3 169.96 260.833 176.327 259.5 178.66C260.333 178.66 264.1 178.26 272.5 176.66C280.9 175.06 282.2 174.139 284 174.66C285.799 175.181 336.39 210.692 337.5 214.16C338.61 217.629 335 221.16 328.5 220.66C322 220.16 316.5 219.66 305 214.16C293.5 208.66 289 201.16 281 199.16C273 197.16 244 205.66 231.5 201.16C219 196.66 218 179.66 207 175.16C197.56 171.298 156.083 172.592 132.5 173.352M81.4997 182.38C92.5938 181.811 100.608 181.334 102 181.16C106 180.66 112.5 178.41 115 177.16C118 175.66 118.965 173.753 122.5 173.66C125.194 173.589 128.603 173.478 132.5 173.352M81.4997 182.38C64.4997 189.973 30.3997 207.46 29.9997 216.66C29.5997 225.86 34.833 226.16 37.4997 225.16C48.8329 219.327 73.4994 206.86 81.4997 203.66C91.5 199.66 102.5 194.16 111.5 189.66C118.7 186.06 128.5 177.288 132.5 173.352M144.5 114.66C144 119.16 143.5 126.66 147 131.16C151.167 136.518 160.333 137.493 164 137.66C172.833 139.327 192 142.16 198 140.16C205.5 137.66 209.5 134.16 217 133.66C223 133.26 234.5 134.16 239.5 134.66M117 119.66L122.5 125.16M122.5 125.16L128 119.66M122.5 125.16V133.907" stroke="#6F9AEA" stroke-linecap="round"/>
<path d="M95 90.6603C95.3333 89.9937 98 88.3423 101.5 88.6603C107 89.1601 109 93.1189 109 96.1603C109 99.6601 107 103.66 103 104.66C99.5 105.535 96.1667 104.827 95.5 104.16" stroke="#6F9AEA" stroke-linecap="round"/>
<path d="M147.5 103.66C147.102 104.29 143.919 105.397 140.468 104.732C135.044 103.688 133.75 99.6602 133.75 96.5241C133.75 93.0242 136.501 89.3585 140.565 88.6626C143.5 88.1602 147.5 89.1602 148.5 90.1602" stroke="#6F9AEA" stroke-linecap="round"/>
<path d="M11.0365 175.66C9.70312 176.827 7.53613 179.16 6.53645 181.16C5.79908 182.635 6.03645 183.827 6.03645 184.16" stroke="#6F9AEA" stroke-linecap="round"/>
<path d="M20 177.66C18.9411 178.621 17.22 180.543 16.4261 182.19C15.8404 183.404 16.029 184.386 16.029 184.66" stroke="#6F9AEA" stroke-linecap="round"/>
<path d="M40 213.659C39.1714 214.825 38.0018 217.966 38.0005 220.659C38 221.66 38.0004 223.66 38.5275 224.348" stroke="#6F9AEA" stroke-linecap="round"/>
<path d="M265 145.66C267.333 146.66 272.3 150.06 273.5 155.66C274.7 161.26 274 166.993 273.5 169.16C276.5 167.16 283.7 163.06 288.5 162.66C294.5 162.16 304.5 169.16 318.5 174.16C332.5 179.16 349.5 183.66 350.5 187.66C351.5 191.66 349 197.16 340.5 197.66C333.7 198.06 316.167 193.493 308 191.16" stroke="#6F9AEA" stroke-linecap="round"/>
<path d="M94.4998 94.1602C94.9991 81.6602 106.5 73.1602 121.5 73.1602C136.499 73.1602 149 81.6602 149 92.1602C149 102.66 143.5 132.66 122.5 134.16C101.5 135.66 94.0005 106.66 94.4998 94.1602Z" stroke="#6F9AEA" stroke-linecap="round"/>
<path d="M203.5 75.1611L202 66.1611C241.167 61.6611 320.914 54.2741 327.5 54.6611C336 55.1606 342 56.6611 343.5 66.1611C345 75.6611 329.5 76.6611 315 78.1611C303.4 79.3611 236.833 82.6611 205 84.1611L203.5 75.1611ZM203.5 75.1611L322 66.1611" stroke="#6F9AEA" stroke-linecap="round"/>
<path d="M167.871 33.3381L165.346 24.5705C203.734 15.5938 270 3.3071 276.5 2.15975C283 1.0124 291.917 -0.604487 294.5 8.65983C297.083 17.9241 283.231 22.5014 269 25.6598C257.615 28.1866 201.846 36.953 170.397 42.1058L167.871 33.3381ZM167.871 33.3381L276.5 12.1602" stroke="#6F9AEA" stroke-linecap="round"/>
<circle cx="141.5" cy="97.1602" r="1.5" fill="#6F9AEA"/>
<circle cx="101.5" cy="97.1602" r="1.5" fill="#6F9AEA"/>
</svg>
