<svg width="598" height="399" viewBox="0 0 598 399" fill="none" xmlns="http://www.w3.org/2000/svg">
<circle cx="378" cy="220.66" r="15.5" stroke="#6F9AEA"/>
<path d="M226.5 211.66C225.5 221.16 220.1 238.46 212.5 243.66C203 250.16 158 249.16 147.5 250.66C137 252.16 124 254.66 124 263.66C124 272.469 129.5 272.16 133 272.16C152.124 271.834 183.717 270.446 204.5 269.38M381 236.16C382.166 237.993 384.7 243.36 385.5 250.16C386.3 256.96 383.833 263.327 382.5 265.66C383.333 265.66 387.1 265.26 395.5 263.66C403.9 262.06 405.2 261.139 407 261.66C408.799 262.181 459.39 297.692 460.5 301.16C461.61 304.629 458 308.16 451.5 307.66C445 307.16 439.5 306.66 428 301.16C416.5 295.66 412 288.16 404 286.16C396 284.16 367 292.66 354.5 288.16C342 283.66 341 266.66 330 262.16C320.56 258.298 279.083 259.592 255.5 260.352M204.5 269.38C215.594 268.811 223.608 268.334 225 268.16C229 267.66 235.5 265.41 238 264.16C241 262.66 241.965 260.753 245.5 260.66C248.194 260.589 251.603 260.478 255.5 260.352M204.5 269.38C187.5 276.973 153.4 294.46 153 303.66C152.6 312.86 157.833 313.16 160.5 312.16C171.833 306.327 196.499 293.86 204.5 290.66C214.5 286.66 225.5 281.16 234.5 276.66C241.7 273.06 251.5 264.288 255.5 260.352M267.5 201.66C267 206.16 266.5 213.66 270 218.16C274.167 223.518 283.333 224.493 287 224.66C295.833 226.327 315 229.16 321 227.16C328.5 224.66 332.5 221.16 340 220.66C346 220.26 357.5 221.16 362.5 221.66M240 206.66L245.5 212.16M245.5 212.16L251 206.66M245.5 212.16V220.907" stroke="#6F9AEA" stroke-linecap="round"/>
<path d="M218 177.66C218.333 176.994 221 175.342 224.5 175.66C230 176.16 232 180.119 232 183.16C232 186.66 230 190.66 226 191.66C222.5 192.535 219.167 191.827 218.5 191.16" stroke="#6F9AEA" stroke-linecap="round"/>
<path d="M270.5 190.66C270.102 191.29 266.919 192.397 263.468 191.732C258.044 190.688 256.75 186.66 256.75 183.524C256.75 180.024 259.501 176.358 263.565 175.663C266.5 175.16 270.5 176.16 271.5 177.16" stroke="#6F9AEA" stroke-linecap="round"/>
<path d="M134.036 262.66C132.703 263.827 130.536 266.16 129.536 268.16C128.799 269.635 129.036 270.827 129.036 271.16" stroke="#6F9AEA" stroke-linecap="round"/>
<path d="M143 264.66C141.941 265.621 140.22 267.543 139.426 269.19C138.84 270.404 139.029 271.386 139.029 271.66" stroke="#6F9AEA" stroke-linecap="round"/>
<path d="M163 300.659C162.171 301.825 161.002 304.966 161 307.659C161 308.66 161 310.66 161.528 311.348" stroke="#6F9AEA" stroke-linecap="round"/>
<path d="M388 232.66C390.333 233.66 395.3 237.06 396.5 242.66C397.7 248.26 397 253.993 396.5 256.16C399.5 254.16 406.7 250.06 411.5 249.66C417.5 249.16 427.5 256.16 441.5 261.16C455.5 266.16 472.5 270.66 473.5 274.66C474.5 278.66 472 284.16 463.5 284.66C456.7 285.06 439.167 280.493 431 278.16" stroke="#6F9AEA" stroke-linecap="round"/>
<path d="M217.5 181.16C217.999 168.66 229.5 160.16 244.5 160.16C259.499 160.16 272 168.66 272 179.16C272 189.66 266.5 219.66 245.5 221.16C224.5 222.66 217 193.66 217.5 181.16Z" stroke="#6F9AEA" stroke-linecap="round"/>
<path d="M326.5 162.161L325 153.161C364.167 148.661 443.914 141.274 450.5 141.661C459 142.161 465 143.661 466.5 153.161C468 162.661 452.5 163.661 438 165.161C426.4 166.361 359.833 169.661 328 171.161L326.5 162.161ZM326.5 162.161L445 153.161" stroke="#6F9AEA" stroke-linecap="round"/>
<path d="M290.871 120.338L288.346 111.57C326.734 102.594 393 90.3071 399.5 89.1598C406 88.0124 414.917 86.3955 417.5 95.6598C420.083 104.924 406.231 109.501 392 112.66C380.615 115.187 324.846 123.953 293.397 129.106L290.871 120.338ZM290.871 120.338L399.5 99.1602" stroke="#6F9AEA" stroke-linecap="round"/>
<circle cx="264.5" cy="184.16" r="1.5" fill="#6F9AEA"/>
<circle cx="224.5" cy="184.16" r="1.5" fill="#6F9AEA"/>
</svg>
